<svg xmlns="http://www.w3.org/2000/svg" xmlns:xlink="http://www.w3.org/1999/xlink" viewBox="0,0,256,256" width="32px" height="32px"><g fill="#ffffff" fill-rule="nonzero" stroke="none" stroke-width="1" stroke-linecap="butt" stroke-linejoin="miter" stroke-miterlimit="10" stroke-dasharray="" stroke-dashoffset="0" font-family="none" font-weight="none" font-size="none" text-anchor="none" style="mix-blend-mode: normal"><g transform="scale(8,8)"><path d="M16,4c-6.62677,0 -12,5.37323 -12,12c0,5.08385 3.16292,9.426 7.62692,11.17385c-0.10477,-0.94892 -0.19985,-2.406 0.042,-3.44215c0.21785,-0.936 1.40723,-5.96492 1.40723,-5.96492c0,0 -0.35908,-0.71908 -0.35908,-1.78108c0,-1.66892 0.96692,-2.91415 2.17108,-2.91415c1.02415,0 1.518,0.76892 1.518,1.69015c0,1.03015 -0.65492,2.56892 -0.99415,3.99508c-0.28292,1.19492 0.59908,2.16923 1.77692,2.16923c2.13277,0 3.77215,-2.24908 3.77215,-5.49508c0,-2.87308 -2.064,-4.88215 -5.01185,-4.88215c-3.414,0 -5.418,2.56108 -5.418,5.208c0,1.03108 0.39692,2.13692 0.89308,2.73877c0.09785,0.11908 0.11215,0.22293 0.08308,0.34385c-0.09092,0.37892 -0.29308,1.194 -0.33323,1.36108c-0.05215,0.22015 -0.174,0.26585 -0.40108,0.16015c-1.49908,-0.69785 -2.436,-2.88877 -2.436,-4.64908c0,-3.78508 2.74985,-7.26185 7.92923,-7.26185c4.16308,0 7.398,2.96585 7.398,6.93092c0,4.13585 -2.60815,7.464 -6.22708,7.464c-1.21615,0 -2.35892,-0.63185 -2.74985,-1.37815c0,0 -0.60185,2.29108 -0.74815,2.85277c-0.27092,1.04215 -1.002,2.34923 -1.49215,3.14585c1.12292,0.34708 2.316,0.53493 3.55292,0.53493c6.62677,0 12,-5.37323 12,-12c0,-6.62677 -5.37277,-12 -12,-12z"></path></g></g></svg>