<svg width="49" height="32" viewBox="0 0 49 32" fill="none" xmlns="http://www.w3.org/2000/svg">
<g id="icons" clip-path="url(#clip0_0_81)">
<path id="info button" fill-rule="evenodd" clip-rule="evenodd" d="M27.9772 15.7924C27.9772 23.4088 21.7134 29.5831 13.9866 29.5831C6.25988 29.5831 -0.00390625 23.4088 -0.00390625 15.7924C-0.00390625 8.17601 6.25988 2.00171 13.9866 2.00171C21.7134 2.00171 27.9772 8.17601 27.9772 15.7924ZM26.858 15.7924C26.858 22.7995 21.0953 28.4798 13.9866 28.4798C6.87802 28.4798 1.11534 22.7995 1.11534 15.7924C1.11534 8.78532 6.87802 3.10496 13.9866 3.10496C21.0953 3.10496 26.858 8.78532 26.858 15.7924ZM11.7482 13.0343V13.5859H12.8674V22.4119H11.7482V22.9636H12.8674H15.1059H16.2251V22.4119H15.1059V13.0343H12.8674H11.7482ZM15.6655 10.2761C15.6655 11.1901 14.9139 11.931 13.9866 11.931C13.0594 11.931 12.3078 11.1901 12.3078 10.2761C12.3078 9.36216 13.0594 8.62124 13.9866 8.62124C14.9139 8.62124 15.6655 9.36216 15.6655 10.2761Z" fill="white"/>
</g>
<defs>
<clipPath id="clip0_0_81">
<rect width="49" height="32" fill="white" transform="translate(-0.00390625 0.00170898)"/>
</clipPath>
</defs>
</svg>
