<svg width="70" height="32" viewBox="0 0 70 32" fill="none" xmlns="http://www.w3.org/2000/svg">
<g clip-path="url(#clip0_0_182)">
<path fill-rule="evenodd" clip-rule="evenodd" d="M60.9602 7.49677C64.8022 11.3388 65.0891 17.4052 61.8498 21.6738L70.1973 30.0213L68.2187 31.9999L59.8922 23.6734C55.6154 27.0661 49.4261 26.8282 45.5274 22.9296C41.3267 18.7288 41.376 11.8687 45.6377 7.60701C49.8993 3.34536 56.7595 3.29601 60.9602 7.49677ZM60.1688 8.2882C63.9387 12.0581 63.8944 18.2147 60.0699 22.0392C56.2453 25.8638 50.0888 25.9081 46.3189 22.1381C42.5489 18.3682 42.5932 12.2117 46.4178 8.38713C50.2423 4.56257 56.3989 4.51828 60.1688 8.2882Z" fill="#2B4074"/>
<path fill-rule="evenodd" clip-rule="evenodd" d="M27.9772 15.7925C27.9772 23.4089 21.7134 29.5832 13.9866 29.5832C6.25988 29.5832 -0.00390625 23.4089 -0.00390625 15.7925C-0.00390625 8.17613 6.25988 2.00183 13.9866 2.00183C21.7134 2.00183 27.9772 8.17613 27.9772 15.7925ZM26.858 15.7925C26.858 22.7996 21.0953 28.48 13.9866 28.48C6.87802 28.48 1.11534 22.7996 1.11534 15.7925C1.11534 8.78544 6.87802 3.10509 13.9866 3.10509C21.0953 3.10509 26.858 8.78544 26.858 15.7925ZM11.7482 13.0344V13.586H12.8674V22.4121H11.7482V22.9637H12.8674H15.1059H16.2251V22.4121H15.1059V13.0344H12.8674H11.7482ZM15.6655 10.2762C15.6655 11.1902 14.9139 11.9311 13.9866 11.9311C13.0594 11.9311 12.3078 11.1902 12.3078 10.2762C12.3078 9.36228 13.0594 8.62136 13.9866 8.62136C14.9139 8.62136 15.6655 9.36228 15.6655 10.2762Z" fill="#2B4074"/>
</g>
<defs>
<clipPath id="clip0_0_182">
<rect width="70" height="32" fill="white" transform="translate(-0.00390625 0.00183105)"/>
</clipPath>
</defs>
</svg>
